<?xml version="1.0" standalone="no"?>
<!DOCTYPE svg PUBLIC "-//W3C//DTD SVG 1.1//EN" "http://www.w3.org/Graphics/SVG/1.1/DTD/svg11.dtd" >
<svg xmlns="http://www.w3.org/2000/svg" xmlns:xlink="http://www.w3.org/1999/xlink" version="1.1">
<metadata></metadata>
<defs>
<font id="sinhala_mnregular" horiz-adv-x="1181" >
<font-face units-per-em="2048" ascent="1638" descent="-410" />
<missing-glyph horiz-adv-x="600" />
<glyph horiz-adv-x="0" />
<glyph unicode="&#xd;" horiz-adv-x="975" />
<glyph unicode=" "  horiz-adv-x="600" />
<glyph unicode="&#x09;" horiz-adv-x="600" />
<glyph unicode="&#xa0;" horiz-adv-x="600" />
<glyph unicode="!" horiz-adv-x="596" d="M174 1261q0 39 11 69t28 51.5t39.5 33t46.5 11.5q51 0 87 -44t36 -121q0 -98 -13 -208.5t-28.5 -227t-30.5 -235t-20 -234.5h-65q-5 116 -19 234.5t-30.5 235t-29 227t-12.5 208.5zM183 79q0 45 33.5 77.5t82.5 32.5q47 0 80 -32.5t33 -77.5q0 -48 -33 -80t-80 -32 q-49 0 -82.5 32t-33.5 80z" />
<glyph unicode="&#x22;" horiz-adv-x="789" d="M114 1320q0 46 31 76t77 30q45 0 76 -30t31 -76q0 -64 -9.5 -120t-22 -113t-27 -119.5t-24.5 -139.5h-49q-10 77 -24 139.5t-27 119.5t-22.5 113t-9.5 120zM462 1320q0 46 30.5 76t76.5 30q44 0 75 -30t31 -76q0 -64 -9.5 -120t-22 -113t-27 -119.5t-24.5 -139.5h-49 q-10 77 -23.5 139.5t-26.5 119.5t-22 113t-9 120z" />
<glyph unicode="#" horiz-adv-x="1051" d="M10 402v80h197l73 346h-270v77h287l105 489h107l-106 -489h349l105 489h104l-102 -489h182v-77h-199l-73 -346h272v-79h-289l-98 -454h-106l97 454h-348l-98 -454h-107l100 453h-182zM313 482h349l73 346h-347z" />
<glyph unicode="$" horiz-adv-x="1099" d="M114 61v284h50q10 -80 34 -136.5t63 -92.5t96.5 -52.5t134.5 -16.5v582q-74 40 -142 86t-120.5 100t-84 120.5t-31.5 148.5q0 69 29.5 128t81 105t120 74.5t147.5 34.5v100h83v-100q56 -3 103.5 -12.5t90.5 -23t83 -29t80 -33.5v-307h-40q-11 94 -38 153.5t-68 94.5 t-94 52t-117 26v-529q74 -40 147 -87t131 -104.5t94.5 -125.5t36.5 -149q0 -76 -29.5 -142.5t-83 -118.5t-128.5 -85t-168 -39v-94h-83v94q-113 3 -202.5 23.5t-175.5 70.5zM295 1134q0 -39 15 -76t41.5 -70.5t62 -63t78.5 -53.5v476q-43 -7 -78.5 -27t-62 -48.5 t-41.5 -64.5t-15 -73zM575 47q48 9 90.5 32.5t73 58t48 76t17.5 83.5q0 45 -17.5 85t-48 75t-73 65.5t-90.5 56.5v-532z" />
<glyph unicode="%" horiz-adv-x="1766" d="M74 1041q0 70 19.5 139.5t57.5 123.5t93 88t126 34q73 0 127.5 -34t91.5 -88t56 -123.5t19 -139.5t-19 -136.5t-56 -118.5t-92 -83.5t-128 -31.5q-72 0 -127 31.5t-92 83.5t-56.5 118.5t-19.5 136.5zM237 1041q0 -21 1.5 -53.5t6 -67.5t13 -70t23.5 -63t36.5 -45.5 t51.5 -17.5t51.5 17t36.5 45t23.5 63t13.5 70t6.5 67t1.5 55q0 33 -4.5 89.5t-18 110t-39 93t-68.5 39.5q-46 0 -72.5 -38.5t-40 -92.5t-18 -110.5t-4.5 -90.5zM339 -33l999 1459h92l-1000 -1459h-91zM1103 339q0 70 19 138.5t56.5 123.5t92.5 89t126 34q73 0 127.5 -34 t91.5 -89t55.5 -123.5t18.5 -138.5t-18.5 -137.5t-55.5 -119.5t-92 -83.5t-128 -31.5q-72 0 -126 31.5t-91.5 83.5t-56.5 119.5t-19 137.5zM1264 339q0 -33 3.5 -86.5t17 -105t39.5 -89.5t72 -38q44 0 70.5 37t41 88.5t18 105.5t3.5 88q0 33 -4.5 88.5t-17.5 110t-38.5 94 t-68.5 39.5q-30 0 -51.5 -18t-37 -47.5t-24.5 -66.5t-14.5 -73.5t-7 -70t-1.5 -56.5z" />
<glyph unicode="&#x26;" horiz-adv-x="1641" d="M74 270q0 96 36.5 170.5t96 133t135.5 104.5t156 84q-45 93 -70.5 171t-25.5 131q0 69 23 134.5t68 115.5t113.5 81t158.5 31q67 0 126.5 -19.5t104 -57.5t70 -91.5t25.5 -122.5q0 -68 -33 -119.5t-85 -92.5t-118.5 -74.5t-135.5 -66.5q55 -103 132 -206t167 -201 q105 118 157 217.5t68 173.5l53 -14q-13 -74 -31.5 -133.5t-44.5 -111.5t-60.5 -101.5t-76.5 -103.5q81 -82 153 -130t133 -48q78 0 134.5 31t89.5 110l40 -15q-29 -137 -121.5 -210t-227.5 -73q-86 0 -177.5 49.5t-178.5 130.5q-103 -80 -224 -130t-262 -50q-99 0 -169 22 t-113.5 62.5t-64.5 96t-21 122.5zM289 362q0 -57 18 -106.5t52 -86t82.5 -57t110.5 -20.5q83 0 158 36t144 91q-96 103 -174.5 227.5t-146.5 245.5q-53 -30 -98 -67t-77 -78.5t-50.5 -88t-18.5 -96.5zM599 1135q0 -63 23 -138.5t63 -149.5q54 27 101.5 57.5t82.5 66.5t55 78 t20 94q0 50 -13 90t-36 67.5t-53 42t-64 14.5q-39 0 -71.5 -20t-56.5 -52t-37.5 -71.5t-13.5 -78.5z" />
<glyph unicode="'" horiz-adv-x="364" d="M76 1320q0 46 30.5 76t75.5 30t76 -30t31 -76q0 -64 -9.5 -120t-22 -113t-27 -119.5t-23.5 -139.5h-50q-10 77 -23.5 139.5t-26.5 119.5t-22 113t-9 120z" />
<glyph unicode="(" horiz-adv-x="772" d="M150 489q0 152 44.5 299t125 272t192 221t246.5 145v-36q-114 -76 -190 -177.5t-121 -218.5t-64.5 -246t-19.5 -259q0 -129 16 -254.5t58.5 -241t120 -215.5t200.5 -176v-37q-136 49 -247.5 142.5t-191.5 217.5t-124.5 269t-44.5 295z" />
<glyph unicode=")" horiz-adv-x="770" d="M14 -398q123 76 199.5 176t119.5 215.5t59 241t16 254.5q0 130 -19 259t-64.5 246t-121.5 218.5t-189 177.5v36q135 -49 246.5 -145t191.5 -221t124.5 -272t44.5 -299q0 -150 -44.5 -295t-124 -269t-191.5 -217.5t-247 -142.5v37z" />
<glyph unicode="*" horiz-adv-x="827" d="M44 1185q0 18 10 35q12 18 30 27t39 9q33 0 63 -16q24 -16 48.5 -42.5t50 -55.5t53.5 -57t60 -45q0 34 -10 72t-23 76t-23 72t-10 63q0 44 24 73.5t57 29.5q35 0 58.5 -29.5t23.5 -73.5q0 -29 -10 -63t-23 -72t-23 -76t-10 -72q30 17 58 45t54.5 57t50.5 55.5t49 40.5 q31 18 61 18q22 0 39.5 -9.5t27.5 -26.5t10 -35q0 -24 -15 -49t-43 -41q-25 -12 -59 -21t-72 -16.5t-76 -18.5t-68 -28q30 -17 68 -27t76.5 -17t73 -16t58.5 -21q29 -18 43 -42t14 -49q0 -18 -8 -35q-10 -18 -28 -26.5t-39 -8.5q-33 0 -63 16q-25 14 -50 40t-50.5 55t-53 58 t-58.5 46q0 -34 10 -73t23 -76.5t23 -72t10 -61.5q0 -45 -23.5 -75t-58.5 -30q-33 0 -57 30t-24 75q0 27 10 62t22 73t22 76t12 72q-30 -19 -58 -47t-54.5 -57t-51.5 -55t-50 -40q-31 -19 -62 -19q-45 0 -68 36q-8 15 -8 33q0 26 15.5 51t42.5 41q23 13 58 21.5t74 16 t77.5 18.5t68.5 28q-30 17 -68.5 28t-77.5 18.5t-74 15.5t-58 22q-27 18 -43.5 42t-16.5 48z" />
<glyph unicode="+" horiz-adv-x="1192" d="M61 735v87h484v464h90v-464h485v-87h-485v-463h-90v463h-484z" />
<glyph unicode="," horiz-adv-x="533" d="M90 86q0 27 11.5 50.5t31 40.5t45 26.5t55.5 9.5q39 0 72.5 -17t59 -47t40 -70t14.5 -85q0 -71 -26.5 -131t-71.5 -104.5t-105 -71.5t-126 -32v49q47 13 89.5 38t73 56.5t48.5 68.5t18 76q0 23 -9.5 40t-22.5 17q-12 0 -21.5 -5t-19 -11.5t-21.5 -11.5t-32 -5 q-41 0 -72 34.5t-31 84.5z" />
<glyph unicode="-" horiz-adv-x="614" d="M51 440v123h512v-123h-512z" />
<glyph unicode="." horiz-adv-x="459" d="M114 79q0 45 34 77.5t82 32.5q47 0 81 -32.5t34 -77.5q0 -48 -34 -80t-81 -32q-48 0 -82 32t-34 80z" />
<glyph unicode="/" horiz-adv-x="540" d="M-11 -33l467 1459h96l-468 -1459h-95z" />
<glyph unicode="0" d="M76 705q0 149 37 279.5t104.5 228.5t162.5 155.5t211 57.5q115 0 210.5 -57.5t162.5 -155.5t104 -228.5t37 -279.5q0 -162 -37 -297t-104 -233t-162.5 -153t-210.5 -55q-116 0 -211 55t-162.5 153t-104.5 233t-37 297zM312 705q0 -133 17 -254t51.5 -213t86.5 -146.5 t124 -54.5q70 0 122.5 54.5t88 146.5t52.5 213t17 254t-17 251t-52.5 207.5t-88 141.5t-122.5 52q-72 0 -124 -52t-86.5 -141.5t-51.5 -207.5t-17 -251z" />
<glyph unicode="1" d="M350 1180v60q129 0 205.5 48.5t118.5 137.5h108v-1426h-197v1180h-235z" />
<glyph unicode="2" d="M92 0v37q155 147 268 259.5t192.5 198.5t129 151t76.5 116.5t37 93.5t10 85q0 61 -19.5 120t-57 103t-95 71.5t-131.5 27.5q-59 0 -114.5 -20t-101.5 -54.5t-77.5 -80.5t-39.5 -97h-40q5 86 44 161.5t99.5 131.5t138.5 89t164 33q109 0 190.5 -31t136.5 -84t82.5 -122 t27.5 -147q0 -80 -35.5 -162.5t-115 -185t-208 -232t-313.5 -303.5h745l-103 -159h-890z" />
<glyph unicode="3" d="M129 82q0 22 10.5 37t27.5 24.5t37.5 13t37.5 3.5q55 0 89 -15.5t61.5 -33.5t59 -34t83.5 -16q73 0 128.5 24t93.5 64t57.5 92t19.5 109q0 73 -28 134.5t-84.5 107.5t-144 71.5t-205.5 25.5v36q80 9 145.5 36.5t113 70.5t74 100.5t26.5 125.5q0 46 -18 86.5t-51.5 71 t-79.5 47.5t-102 17q-40 0 -82 -13.5t-82 -37.5t-73 -56t-54 -68l-42 16q23 63 60.5 119t89.5 97.5t118.5 65t146.5 23.5q76 0 143 -22.5t117 -61.5t79 -93.5t29 -117.5q0 -33 -16.5 -72t-46 -80.5t-68 -81t-81.5 -69.5q60 -17 112 -55t91 -89t61.5 -108.5t22.5 -116.5 q0 -124 -48.5 -216.5t-133.5 -153t-201 -91.5t-250 -31q-113 0 -178 32t-65 83z" />
<glyph unicode="4" d="M51 360v128l731 938h133v-914h199v-152h-199v-360h-197v360h-667zM190 512h528v688z" />
<glyph unicode="5" d="M162 106q0 37 29 55.5t68 18.5q41 0 71 -15.5t61 -35t69 -35t98 -15.5q68 0 128 27t105.5 73.5t71.5 108.5t26 134q0 97 -48.5 175.5t-138.5 134.5t-218 86.5t-285 30.5l300 545h548l-87 -171h-452l-105 -191q130 0 246 -40.5t204 -112.5t139.5 -172.5t51.5 -218.5 q1 -108 -47.5 -203t-132 -165.5t-197.5 -111.5t-242 -41q-59 0 -107.5 11.5t-83 30t-53.5 43.5t-19 54z" />
<glyph unicode="6" d="M100 522q0 183 67.5 347.5t191.5 288t298.5 196t389.5 72.5v-36q-126 -11 -239.5 -65t-205 -138t-156 -193t-91.5 -228q68 48 146 80.5t184 32.5q84 0 158.5 -32.5t129.5 -89t87.5 -133t32.5 -162.5q0 -103 -39.5 -193t-107.5 -157.5t-158 -106t-193 -38.5 q-109 0 -199.5 43.5t-156.5 118.5t-102.5 176t-36.5 217zM335 515q0 -96 17 -182.5t52.5 -152.5t91 -104.5t129.5 -38.5q51 0 97 26t79.5 71t53.5 105t20 129q0 87 -23.5 164t-63.5 134.5t-93.5 90t-115.5 32.5q-26 0 -55 -6.5t-60 -17t-60 -26t-52 -34.5q-9 -46 -13 -95 t-4 -95z" />
<glyph unicode="7" d="M142 1223l80 171h840v-37l-510 -1390h-133l458 1256h-735z" />
<glyph unicode="8" d="M152 309q0 67 21 121.5t60.5 101.5t95.5 88.5t126 84.5q-76 56 -129.5 102.5t-88 91.5t-50 91.5t-15.5 104.5q0 69 31.5 129t86.5 105t127.5 71t155.5 26q95 0 174.5 -23.5t137 -66t90.5 -99.5t33 -124q0 -43 -27 -92.5t-72 -96.5t-104 -86.5t-120 -62.5 q90 -53 158 -112.5t112.5 -118t66.5 -112t22 -96.5q0 -76 -35 -143t-96 -117t-142.5 -79.5t-172.5 -29.5q-99 0 -180.5 26t-141 72.5t-92 108.5t-32.5 135zM327 326q0 -60 21.5 -113t59.5 -91.5t88 -61.5t106 -23q57 0 108 16t89.5 43t60.5 64t22 79q0 30 -12 64t-32.5 68 t-48 64.5t-57.5 53.5l-224 177q-49 -38 -83.5 -82.5t-56 -89.5t-31.5 -88.5t-10 -79.5zM339 1154q0 -51 27 -98.5t70 -89.5t95 -80t102 -72q92 73 148 155t56 191q0 41 -18 77t-51 63t-81 42t-108 15q-53 0 -97 -17t-75.5 -45.5t-49.5 -65t-18 -75.5z" />
<glyph unicode="9" d="M92 941q0 100 38.5 188.5t105.5 154.5t156.5 104t192.5 38q101 0 191.5 -44t158 -119t107 -175.5t39.5 -216.5q0 -125 -34.5 -240t-96.5 -215.5t-149 -183t-193 -142t-228.5 -91.5t-253.5 -32v37q78 7 155 33t147 67.5t131.5 96.5t111.5 120t85 138.5t53 152.5 q-68 -43 -144 -73t-180 -30q-92 0 -165 36.5t-123.5 96.5t-77.5 138t-27 161zM306 1030q0 -93 16.5 -172t51.5 -136t88.5 -88.5t129.5 -31.5q29 0 61.5 7t65 19.5t61 28t48.5 34.5q7 45 12 99.5t5 108.5q0 93 -23 177t-63 146t-94 98.5t-116 36.5q-64 0 -110 -28.5t-75 -75 t-43.5 -105t-14.5 -118.5z" />
<glyph unicode=":" horiz-adv-x="459" d="M114 79q0 45 34 77.5t82 32.5q47 0 81 -32.5t34 -77.5q0 -48 -34 -80t-81 -32q-48 0 -82 32t-34 80zM114 851q0 46 34 78.5t82 32.5q47 0 81 -32.5t34 -78.5t-34 -79t-81 -33q-48 0 -82 33t-34 79z" />
<glyph unicode=";" horiz-adv-x="559" d="M114 86q0 27 11.5 50.5t31 40.5t46 26.5t56.5 9.5q38 0 72 -17t59 -47t39 -70t14 -85q0 -71 -26.5 -131t-71.5 -104.5t-105 -71.5t-126 -32v49q48 13 90 38t73.5 56.5t49.5 68.5t18 76q0 23 -9.5 40t-23.5 17q-13 0 -21.5 -5t-18 -11.5t-21.5 -11.5t-32 -5 q-43 0 -74 34.5t-31 84.5zM156 847q0 47 33.5 81t82.5 34q47 0 80 -34t33 -81q0 -49 -33 -82t-80 -33q-49 0 -82.5 33t-33.5 82z" />
<glyph unicode="&#x3c;" horiz-adv-x="1244" d="M80 679v59l1058 457v-105l-882 -381l882 -363v-106z" />
<glyph unicode="=" horiz-adv-x="1249" d="M96 532v106h1058v-106h-1058zM96 875v107h1058v-107h-1058z" />
<glyph unicode="&#x3e;" horiz-adv-x="1244" d="M106 240v106l882 363l-882 381v105l1058 -457v-59z" />
<glyph unicode="?" horiz-adv-x="969" d="M102 1113q0 84 35 143.5t89 97t120.5 55t131.5 17.5q85 0 156.5 -23t124 -65t81.5 -103.5t29 -139.5q0 -75 -29 -140.5t-72 -124.5t-94.5 -115.5t-94.5 -116.5t-72 -126.5t-29 -145.5h-49q0 92 16.5 162.5t42 130t54.5 111.5t54.5 105t42 112.5t16.5 132.5q0 68 -17 119 t-47 84.5t-71.5 50t-90.5 16.5q-43 0 -79.5 -10t-62 -28t-40.5 -43t-15 -53q0 -31 10 -49.5t22.5 -34t22.5 -32t10 -42.5q0 -44 -24 -70t-59 -26q-47 0 -79.5 42.5t-32.5 108.5zM346 82q0 47 33.5 81t82.5 34q47 0 80 -34t33 -81q0 -48 -33 -81.5t-80 -33.5 q-49 0 -82.5 33.5t-33.5 81.5z" />
<glyph unicode="@" horiz-adv-x="1989" d="M120 480q0 205 73 378t203 299.5t309 197.5t390 71q152 0 283.5 -51.5t228 -146.5t151.5 -229t55 -298q0 -146 -44 -278.5t-118.5 -234t-171 -161.5t-201.5 -60q-44 0 -81 7t-65 25t-44 48t-16 76q0 34 4 71.5t14 74.5q-7 -7 -12.5 -17t-12.5 -17q-38 -45 -81 -92 t-89.5 -86.5t-95 -64.5t-98.5 -25t-85 21t-59 54.5t-34.5 77.5t-10.5 92q0 70 22 153.5t61.5 166.5t93 161t118 138t136 95.5t145.5 35.5q33 0 59.5 -15.5t46 -40.5t31.5 -56.5t16 -63.5l42 135l167 20l-192 -649q-11 -42 -19 -78.5t-8 -74.5q0 -42 16 -72t53 -30 q70 0 145 54.5t138 146.5t103.5 213.5t40.5 256.5q0 141 -51.5 260t-138 205.5t-200 134.5t-237.5 48q-201 0 -364.5 -69.5t-281 -189.5t-181 -283t-63.5 -349q0 -165 58.5 -314.5t166 -263t258.5 -181.5t335 -68q163 0 291 53t225.5 136t165 186t110.5 201l78 -21 q-65 -144 -146.5 -262t-188 -201t-242.5 -128t-307 -45q-209 0 -374 72t-281 196.5t-177.5 293t-61.5 361.5zM651 242q0 -22 5 -47t17 -46.5t34 -35.5t57 -14q51 0 103 32t99.5 85.5t89.5 122.5t72 141.5t48 144t18 131.5q0 30 -13 57.5t-33 48t-43.5 33.5t-43.5 13 q-57 0 -109.5 -34.5t-98 -90t-82.5 -126.5t-64.5 -145t-41.5 -145t-14 -125z" />
<glyph unicode="A" horiz-adv-x="1395" d="M4 0l672 1426h59l656 -1426h-238l-213 465h-598l-220 -465h-118zM383 555h514l-253 552z" />
<glyph unicode="B" horiz-adv-x="1362" d="M174 0v1394h562q112 0 205 -25t159.5 -70t103.5 -108t37 -139q0 -57 -12 -102t-40.5 -83.5t-78 -73t-123.5 -69.5v-5q74 -11 134 -39.5t103 -72.5t66 -101.5t23 -127.5q0 -81 -34.5 -149.5t-98 -119t-153.5 -80t-202 -29.5h-651zM409 102h253q103 0 177.5 19t123.5 55 t73 85t24 108q0 66 -21 123t-69 98.5t-125 66t-190 24.5h-246v-579zM409 766h299q70 0 125 20.5t92 55.5t57 83.5t20 105.5q0 62 -22.5 112t-72 85t-125.5 54t-180 19h-193v-535z" />
<glyph unicode="C" horiz-adv-x="1627" d="M114 692q0 147 56.5 280t159.5 234t247 160.5t318 59.5q112 0 205.5 -30t170.5 -79.5t138 -114.5t104 -135l-102 -67q-88 170 -195.5 248t-248.5 78q-120 0 -226 -44t-184 -126t-123 -199.5t-45 -264.5q0 -146 44.5 -262.5t121.5 -196.5t182 -123t228 -43 q73 0 141.5 28.5t127.5 74.5t104.5 103t75.5 116l99 -63q-43 -70 -101.5 -135t-136 -114.5t-174.5 -79.5t-217 -30q-173 0 -315.5 58t-243 157.5t-156 231t-55.5 278.5z" />
<glyph unicode="D" horiz-adv-x="1618" d="M174 0v1394h465q215 0 369.5 -40t257.5 -128q118 -101 177.5 -231t59.5 -286q0 -147 -53 -275.5t-156 -225t-254 -152.5t-345 -56h-521zM409 102h249q118 0 222 39t181 115.5t122 189t45 259.5q0 129 -42 237t-118 185t-180 120.5t-229 43.5h-250v-1189z" />
<glyph unicode="E" horiz-adv-x="1229" d="M174 0v1394h970v-90h-735v-499h492v-90h-492v-625h735v-90h-970z" />
<glyph unicode="F" horiz-adv-x="1099" d="M174 0v1394h916v-90h-681v-499h492v-90h-492v-715h-235z" />
<glyph unicode="G" horiz-adv-x="1674" d="M114 686q0 148 57.5 281.5t161 236t247.5 162.5t318 60q110 0 204.5 -30t171.5 -79.5t137 -114.5t103 -135l-101 -67q-89 170 -196 248t-247 78q-128 0 -234.5 -45t-183.5 -128t-120 -201t-43 -266q0 -147 46.5 -265t128 -201t191.5 -128t237 -45q92 0 165.5 25t132.5 71 v489h-263v83h497v-613q-61 -33 -123.5 -58t-134 -42.5t-158 -26t-194.5 -8.5q-173 0 -319.5 57.5t-253 155t-167 228.5t-60.5 278z" />
<glyph unicode="H" horiz-adv-x="1520" d="M174 0v1394h235v-635h701v635h234v-1394h-234v669h-701v-669h-235z" />
<glyph unicode="I" horiz-adv-x="584" d="M174 0v1394h235v-1394h-235z" />
<glyph unicode="J" horiz-adv-x="979" d="M14 139l75 98q23 -18 55.5 -46t70.5 -54.5t80 -45t84 -18.5q91 0 140.5 48.5t49.5 130.5v1142h235v-995q0 -76 -14 -149.5t-56 -132t-120 -95t-206 -36.5q-73 0 -131 13.5t-105.5 35t-86 48.5t-71.5 56z" />
<glyph unicode="K" horiz-adv-x="1487" d="M174 0v1394h235v-618l734 618h153l-697 -586l884 -808h-299l-775 708v-708h-235z" />
<glyph unicode="L" horiz-adv-x="1131" d="M174 0v1394h235v-1304h702v-90h-937z" />
<glyph unicode="M" horiz-adv-x="1910" d="M174 0v1394h241l542 -1069h11l532 1069h236v-1394h-236v1143h-7l-572 -1143h-49l-577 1134h-16v-1134h-105z" />
<glyph unicode="N" horiz-adv-x="1507" d="M174 0v1394h132l914 -1019h10v1019h103v-1427h-55l-989 1134h-9v-1101h-106z" />
<glyph unicode="O" horiz-adv-x="1767" d="M114 705q0 150 59.5 281.5t163 229t244.5 154t303 56.5q161 0 302 -56.5t244.5 -154t163 -229t59.5 -281.5q0 -153 -59.5 -286.5t-163 -234.5t-244.5 -159t-302 -58q-162 0 -303 58t-244.5 159t-163 234.5t-59.5 286.5zM389 705q0 -144 31.5 -267t93.5 -212t155 -139 t215 -50q120 0 211.5 50t154.5 139t95 212t32 267q0 143 -32 263t-95 206.5t-154.5 134.5t-211.5 48q-122 0 -215 -48t-155 -134.5t-93.5 -206.5t-31.5 -263z" />
<glyph unicode="P" horiz-adv-x="1169" d="M174 0v1394h442q109 0 205 -26.5t166.5 -77t111.5 -125t41 -170.5q0 -94 -39.5 -165t-104 -116.5t-146.5 -68.5t-168 -23q-37 0 -76.5 2t-76.5 5t-68.5 7.5t-51.5 8.5v-645h-235zM409 724q40 -12 86 -22t91 -10q76 0 132.5 23t94.5 62.5t56.5 92t18.5 112.5 q0 70 -24.5 127.5t-66.5 97.5t-99 62t-123 22h-166v-567z" />
<glyph unicode="Q" horiz-adv-x="1750" d="M114 705q0 149 58 280.5t160.5 229.5t241 154.5t301.5 56.5q162 0 300.5 -56.5t241 -154.5t160 -229.5t57.5 -280.5q0 -120 -42.5 -238t-119 -215.5t-182.5 -167.5t-232 -95q23 -71 76.5 -140t129.5 -124t168 -89.5t194 -34.5v-37q-103 0 -204 19t-196 51.5t-181.5 76 t-160 91.5t-132 98t-97.5 96q-119 30 -218.5 101.5t-171 168t-111.5 211t-40 228.5zM380 705q0 -144 31.5 -267t94 -212t154.5 -139t215 -50q117 13 209.5 64.5t155.5 137.5t96 204t33 262q0 143 -32.5 263t-95.5 206.5t-155 134.5t-211 48q-123 0 -215 -48t-154.5 -134.5 t-94 -206.5t-31.5 -263z" />
<glyph unicode="R" horiz-adv-x="1329" d="M174 0v1394h484q126 0 220 -27t157 -75t95.5 -115t32.5 -146q0 -66 -24.5 -122.5t-69.5 -102t-108 -78.5t-139 -52l508 -676h-272l-485 655h-164v-655h-235zM409 725h136q78 0 145.5 20.5t116 59.5t75.5 94t27 123q0 63 -21 115.5t-60.5 90.5t-94 58.5t-118.5 20.5h-206 v-582z" />
<glyph unicode="S" horiz-adv-x="1129" d="M46 295l126 51q44 -137 145.5 -213.5t238.5 -76.5q52 0 102.5 14t90 42t64 69t24.5 94q0 64 -33 113.5t-86.5 91.5t-122.5 78.5t-141 73.5t-140.5 77t-122.5 90t-86.5 111.5t-32.5 141.5q0 81 30 148.5t87.5 118t142 79t194.5 28.5q199 0 313.5 -83t165.5 -240l-120 -55 q-41 129 -131 208.5t-239 79.5q-66 0 -115.5 -19t-82 -48t-49 -67t-16.5 -77q0 -54 33.5 -99.5t89 -86.5t126.5 -79t144.5 -76.5t144.5 -81.5t126.5 -92t89.5 -109.5t34 -132.5q0 -83 -31.5 -156t-94.5 -127.5t-156.5 -86t-218.5 -31.5q-200 0 -318.5 86.5t-174.5 241.5z " />
<glyph unicode="T" horiz-adv-x="1324" d="M40 1304v90h1244v-90h-505v-1304h-234v1304h-505z" />
<glyph unicode="U" horiz-adv-x="1504" d="M150 495v899h235v-905q0 -89 30.5 -167.5t87 -137t137.5 -93t179 -34.5q100 0 180.5 34.5t136 93t85.5 137t30 167.5v905h103v-905q0 -107 -35 -201.5t-108.5 -166t-189.5 -113t-277 -41.5q-145 0 -255.5 41.5t-186 113.5t-114 168t-38.5 205z" />
<glyph unicode="V" horiz-adv-x="1381" d="M4 1394h248l526 -1109l489 1109h112l-634 -1427h-60z" />
<glyph unicode="W" horiz-adv-x="1917" d="M1 1394h235l416 -1059l366 956l378 -961l406 1064h114l-536 -1405h-70l-345 869l-330 -869h-80z" />
<glyph unicode="X" horiz-adv-x="1388" d="M0 0l588 688l-537 706h279l405 -535l456 535h125l-524 -612l594 -782h-281l-460 611l-522 -611h-123z" />
<glyph unicode="Y" horiz-adv-x="1339" d="M3 1394h240l483 -706l482 706h128l-541 -792v-602h-234v581z" />
<glyph unicode="Z" horiz-adv-x="1357" d="M19 0v34l979 1270h-979v90h1324l-1008 -1304h1008v-90h-1324z" />
<glyph unicode="[" horiz-adv-x="644" d="M174 -398v1824h461v-93h-296v-1636h296v-95h-461z" />
<glyph unicode="\" horiz-adv-x="543" d="M-10 1426h96l467 -1459h-95z" />
<glyph unicode="]" horiz-adv-x="643" d="M10 -303h295v1636h-295v93h459v-1824h-459v95z" />
<glyph unicode="^" horiz-adv-x="982" d="M9 672l450 754h66l450 -754h-130l-356 599l-359 -599h-121z" />
<glyph unicode="_" horiz-adv-x="1119" d="M-1 -206h1126v-93h-1126v93z" />
<glyph unicode="`" horiz-adv-x="642" d="M100 1426h259l107 -362h-57z" />
<glyph unicode="a" horiz-adv-x="1076" d="M60 245q0 70 28 125t75 99t110 78t134.5 61t147.5 47.5t147 39.5v67q0 75 -14 125t-41.5 80.5t-66 44t-85.5 13.5q-55 0 -89 -14t-53.5 -37t-26.5 -52.5t-7 -59.5q0 -28 -4.5 -54t-16.5 -45t-32.5 -31.5t-52.5 -12.5q-50 0 -80.5 36t-30.5 90q0 53 35 99.5t94 80t138 53 t166 19.5q106 0 178.5 -20t118 -58t65.5 -90t20 -117v-812h-215v147q-37 -28 -73.5 -59t-79.5 -55t-94.5 -40t-119.5 -16q-63 0 -114 21t-86.5 56.5t-55 84t-19.5 106.5zM273 302q0 -40 14.5 -75t38.5 -61.5t55.5 -42.5t66.5 -16q71 0 131 35t123 83v401q-69 -21 -144.5 -53 t-138.5 -73.5t-104.5 -91t-41.5 -106.5z" />
<glyph unicode="b" horiz-adv-x="1212" d="M124 104v1462l152 60h63v-752q26 45 68 86t93 71t104.5 48t103.5 18q94 0 173 -38t135 -103t88.5 -152.5t32.5 -185.5q0 -133 -47.5 -249.5t-128 -204t-190 -137.5t-233.5 -50q-120 0 -226 31.5t-188 95.5zM339 176q20 -20 43.5 -39.5t53 -36t65 -26.5t81.5 -10 q74 0 135.5 36.5t105.5 101t67.5 153t23.5 194.5q0 80 -24.5 150t-67.5 121.5t-100 81.5t-123 30q-37 0 -75 -10t-73 -27.5t-64 -42t-48 -51.5v-625z" />
<glyph unicode="c" horiz-adv-x="1149" d="M74 509q0 122 44 229t119.5 186.5t177 126t217.5 46.5q90 0 166.5 -20t131.5 -54.5t86 -81t31 -100.5q0 -24 -12.5 -46.5t-33 -38t-45.5 -25t-51 -9.5q-58 0 -92 37.5t-34 81.5q0 37 -7.5 69t-27.5 56t-55 37.5t-90 13.5q-73 0 -131 -29.5t-97 -80t-60.5 -118 t-21.5 -143.5q0 -103 26.5 -195t75.5 -160.5t118.5 -109.5t154.5 -41q74 0 129 23.5t96 63.5t70 93t52 112l64 -26q-54 -204 -180.5 -316.5t-312.5 -112.5q-106 0 -198 41.5t-161 113.5t-109 169.5t-40 207.5z" />
<glyph unicode="d" horiz-adv-x="1222" d="M74 523q0 109 44.5 212.5t121.5 184t180 129t219 48.5q79 0 137.5 -27.5t108.5 -72.5v567l150 62h63v-1649h-213v127q-37 -30 -80 -53.5t-89.5 -40t-94.5 -25t-92 -8.5q-94 0 -177 43.5t-144.5 118.5t-97.5 174.5t-36 209.5zM312 585q0 -103 26.5 -192.5t72 -156 t107 -105t131.5 -38.5q69 0 132.5 33t103.5 77v531q0 63 -23.5 115t-61.5 89t-86 58t-96 21q-65 0 -120.5 -31.5t-97 -89t-65 -136.5t-23.5 -175z" />
<glyph unicode="e" horiz-adv-x="1185" d="M74 498q0 128 38 238.5t107.5 190.5t166.5 125t217 45q106 0 194 -37.5t151.5 -100t99 -144t35.5 -171.5h-803q0 -109 28 -201.5t79 -159.5t120 -105t152 -38q70 0 134 22t116 59.5t88.5 84.5t52.5 97l61 -27q-23 -83 -74.5 -155t-120 -126.5t-150 -86t-164.5 -31.5 q-109 0 -204.5 41t-168 111.5t-114 165.5t-41.5 203zM282 731l533 -2q0 62 -21.5 114t-59.5 90.5t-88.5 61t-107.5 22.5q-49 0 -93.5 -21.5t-78.5 -60t-57 -91t-27 -113.5z" />
<glyph unicode="f" horiz-adv-x="806" d="M30 985v90h225v126q0 87 31 165t85.5 135.5t127.5 91t156 33.5q71 0 127 -14.5t94 -39.5t58 -58t20 -71q0 -47 -33 -74.5t-77 -27.5q-40 0 -60 15t-31 38t-18 49.5t-18.5 49.5t-34.5 38t-64 15q-33 0 -60 -18.5t-46.5 -48.5t-31 -69t-11.5 -80v-255h287v-90h-287v-985 h-214v985h-225z" />
<glyph unicode="g" horiz-adv-x="1266" d="M24 -276q0 44 22.5 85t56.5 78t76.5 72t83.5 67q-60 20 -100 52t-40 78q0 33 17 68t47 67t69.5 58.5t85.5 42.5q-109 46 -170.5 128.5t-61.5 190.5q0 78 36.5 149t100 123t150 83t185.5 31q49 0 95.5 -6.5t87 -17.5t72 -24.5t48.5 -28.5h308v-90h-205q32 -43 51 -98.5 t19 -109.5q0 -84 -36.5 -153t-103 -117.5t-158 -75.5t-201.5 -27q-41 0 -83.5 6.5t-73.5 16.5q-30 -25 -51.5 -58.5t-21.5 -66.5t35.5 -52t100.5 -22l397 -17q96 -4 159.5 -23t101.5 -49.5t54 -72.5t16 -95q0 -95 -44 -170.5t-126 -129.5t-200.5 -83t-267.5 -29 q-268 0 -399.5 60t-131.5 160zM232 -173q0 -36 25 -69t75.5 -58t126.5 -40t177 -15q108 0 193 17.5t143.5 44.5t90 62t31.5 69q0 73 -71 106t-196 33q-78 0 -156.5 3.5t-147 8.5t-120 10t-74.5 10q-47 -36 -72 -87t-25 -95zM349 749q0 -73 18 -135.5t50 -109t78 -73 t100 -26.5q46 0 87.5 20.5t73.5 56.5t51.5 83.5t19.5 103.5q0 79 -21.5 147t-59 117t-86 78t-104.5 29q-54 0 -93.5 -22.5t-64.5 -61.5t-37 -92t-12 -115z" />
<glyph unicode="h" horiz-adv-x="1149" d="M124 0v1564l153 62h62v-747q96 109 201.5 163.5t214.5 54.5q56 0 105 -26t85.5 -69.5t58 -103t21.5 -126.5v-772h-213v735q0 107 -48 162t-125 55q-68 0 -147.5 -42.5t-152.5 -112.5v-797h-215z" />
<glyph unicode="i" horiz-adv-x="481" d="M117 1519q0 21 10 40.5t26.5 34.5t38.5 23.5t47 8.5q26 0 48 -8.5t38.5 -23.5t26.5 -34.5t10 -40.5q0 -22 -10 -42t-26.5 -34t-38.5 -23t-48 -9q-50 0 -86 31.5t-36 76.5zM134 0v1035l151 62h62v-1097h-213z" />
<glyph unicode="j" horiz-adv-x="507" d="M-285 -368q0 45 30 68.5t81 23.5q35 0 57.5 -22t41.5 -48t42.5 -48t63.5 -22q26 0 46 8.5t34.5 29t22.5 56t8 87.5v1270l151 62h62v-1097q0 -169 -29 -267.5t-84 -149.5t-134 -65t-182 -14q-99 0 -155 38t-56 90zM124 1519q0 21 10 40.5t27.5 34.5t39.5 23.5t46 8.5 q26 0 48 -8.5t38.5 -23.5t26.5 -34.5t10 -40.5q0 -22 -10 -42t-26.5 -34t-38.5 -23t-48 -9q-50 0 -86.5 31.5t-36.5 76.5z" />
<glyph unicode="k" horiz-adv-x="1055" d="M124 0v1564l153 62h62v-984l539 433h139l-482 -390l596 -685h-282l-510 589v-589h-215z" />
<glyph unicode="l" horiz-adv-x="483" d="M134 0v1564l153 62h62v-1626h-215z" />
<glyph unicode="m" horiz-adv-x="1883" d="M124 0v1075h215v-201q41 44 92 85t106 71.5t110 48.5t104 18q47 0 96.5 -17.5t91 -47.5t70.5 -72t39 -91q27 48 73.5 89.5t103 72t120.5 48.5t125 18q60 0 113.5 -26.5t93.5 -73t63 -108t23 -130.5v-759h-213v729q0 45 -15.5 85.5t-42 71.5t-61.5 48.5t-74 17.5 q-43 0 -88.5 -12t-87 -32.5t-75.5 -48.5t-54 -60v-799h-213v729q0 45 -15.5 85.5t-42 71.5t-62 48.5t-74.5 17.5q-42 0 -85.5 -12t-85 -33.5t-77 -49.5t-58.5 -58v-799h-215z" />
<glyph unicode="n" horiz-adv-x="1145" d="M124 0v1075h215v-196q97 109 202 163.5t214 54.5q56 0 105 -26t85.5 -69.5t58 -103t21.5 -126.5v-772h-213v735q0 107 -48 162t-123 55q-69 0 -149 -42.5t-153 -112.5v-797h-215z" />
<glyph unicode="o" horiz-adv-x="1295" d="M80 523q0 119 42 223.5t118 182.5t180.5 123t228.5 45q122 0 226.5 -41.5t179.5 -113t118 -167.5t43 -206q0 -123 -43 -230t-118 -188t-179.5 -127.5t-226.5 -46.5q-124 0 -228.5 43t-180.5 117.5t-118 173.5t-42 212zM319 622q0 -117 25 -220t72 -180.5t116 -121.5 t157 -44q63 0 115.5 32t90 87t59 128t21.5 155q0 117 -20 218.5t-65 177.5t-117 119.5t-177 43.5q-54 0 -104 -31.5t-88.5 -85t-61.5 -125t-23 -153.5z" />
<glyph unicode="p" horiz-adv-x="1225" d="M124 -453v1528h215v-220q31 42 70.5 84.5t88 77.5t106 57.5t125.5 22.5q96 0 174 -40t133 -109t85 -160.5t30 -195.5q0 -133 -36.5 -246t-105 -195t-166 -128t-218.5 -46q-89 0 -154.5 18.5t-131.5 60.5v-509h-215zM339 290q0 -48 20.5 -90.5t58.5 -74.5t91 -50.5 t116 -18.5q60 0 113 30.5t92 86.5t62 134t23 172q0 119 -20.5 207.5t-58.5 148t-89.5 88.5t-111.5 29q-47 0 -89.5 -14t-80 -38.5t-69 -56t-57.5 -65.5v-488z" />
<glyph unicode="q" horiz-adv-x="1225" d="M74 483q0 128 46 239.5t125.5 195t186 131.5t227.5 48q36 0 71 -6.5t66 -17.5t55 -25t37 -31l162 80h51v-1550h-213v622q-33 -36 -70 -70.5t-83 -61.5t-103 -43.5t-127 -16.5q-89 0 -167.5 39.5t-137 108t-92.5 161t-34 197.5zM299 595q0 -95 24 -177.5t67 -144 t101 -97.5t124 -36q49 0 92.5 12t79 31.5t62 43t39.5 45.5v542q0 44 -18.5 77t-45.5 57q-16 14 -38 26.5t-48 21.5t-53 15t-53 6q-69 0 -129.5 -33.5t-105.5 -91t-71.5 -134t-26.5 -163.5z" />
<glyph unicode="r" horiz-adv-x="822" d="M124 0v1075h213v-203q32 45 67.5 85.5t74.5 72t81 49.5t85 18q34 0 65 -11t53 -28t35 -40.5t13 -49.5q0 -51 -32.5 -78.5t-90.5 -27.5q-36 0 -58 8t-39.5 17.5t-35 17t-44.5 7.5q-43 0 -85.5 -47t-88.5 -120v-745h-213z" />
<glyph unicode="s" horiz-adv-x="969" d="M72 176l87 79q38 -55 74 -93.5t73 -63t77 -36t86 -11.5q43 0 80 14t63.5 36t41.5 50.5t15 58.5q0 50 -25 86.5t-65 65t-91.5 53.5t-106 50t-105.5 54.5t-91.5 68t-65.5 89.5t-25 120q0 64 27.5 119t76.5 95t116.5 63t147.5 23q53 0 99.5 -7t91.5 -28.5t89 -61t93 -102.5 l-79 -70q-61 99 -136 148t-161 49q-46 0 -84 -11.5t-65 -30.5t-42 -45t-15 -56q0 -64 46.5 -107t116 -77t151 -67t150.5 -76t115.5 -103t46.5 -150q0 -69 -25 -128.5t-76.5 -103t-128.5 -68.5t-180 -25q-47 0 -97 7t-100 28.5t-101 61t-99 102.5z" />
<glyph unicode="t" horiz-adv-x="702" d="M11 985v53q91 0 149.5 32.5t95.5 88t58 129t36 155.5h62v-368h240v-90h-240v-758q0 -48 33 -81.5t83 -33.5q35 0 64.5 17.5t52.5 43.5l53 -36q-43 -74 -114.5 -117t-174.5 -43q-109 0 -159.5 69.5t-50.5 180.5v758h-188z" />
<glyph unicode="u" horiz-adv-x="1166" d="M124 310v765h215v-765q0 -40 18.5 -75.5t50.5 -62t75 -41.5t92 -15q31 0 67.5 13.5t71 37t65 56t50.5 67.5v785h213v-1075h-213v202q-28 -46 -70.5 -87t-92.5 -71.5t-102 -48.5t-99 -18q-70 0 -132.5 26.5t-108 71.5t-73 106t-27.5 129z" />
<glyph unicode="v" horiz-adv-x="1075" d="M3 1075h224l381 -813l364 813h98l-485 -1086h-74z" />
<glyph unicode="w" horiz-adv-x="1661" d="M4 1075h231l340 -785l337 785l341 -785l300 785h103l-439 -1086h-73l-300 703l-302 -703h-67z" />
<glyph unicode="x" horiz-adv-x="993" d="M-44 0l450 549l-380 525h251l264 -360l294 360h117l-357 -435l462 -639h-252l-343 475l-389 -475h-117z" />
<glyph unicode="y" horiz-adv-x="1126" d="M7 1074h243l415 -775l339 775h114l-549 -1263q-34 -78 -79 -136t-96 -96t-104 -56.5t-104 -18.5q-36 0 -66.5 9t-54.5 25.5t-37.5 39.5t-13.5 50q0 46 34.5 81.5t93.5 35.5q34 0 53 -7.5t35 -16t34 -16.5t49 -8q33 0 59.5 19t47 48t36.5 62.5t29 61.5l73 162z" />
<glyph unicode="z" horiz-adv-x="1101" d="M11 0v56l774 929h-774v90h1079v-45l-793 -940h793v-90h-1079z" />
<glyph unicode="{" horiz-adv-x="672" d="M31 475v50q49 0 92.5 19t76 53t51 78t18.5 96q0 44 -5 80t-11 66t-11 56.5t-5 51.5q0 83 32.5 156t88 127.5t130 86t158.5 31.5v-36q-54 -4 -102 -30.5t-83 -67.5t-55.5 -94.5t-20.5 -112.5q0 -40 5 -73.5t11.5 -63.5t11.5 -57t5 -54q0 -51 -21.5 -102t-59.5 -96.5 t-89 -80.5t-108 -53q57 -15 108 -48.5t89 -80t59.5 -101.5t21.5 -111q0 -32 -5 -61.5t-11.5 -59t-11.5 -61t-5 -68.5q0 -61 20.5 -116t55.5 -96.5t83 -68t102 -31.5v-37q-84 0 -158.5 32.5t-130 88t-88 130t-32.5 158.5q0 32 5 60.5t11 58.5t11 63t5 73q0 51 -18.5 95.5 t-51 78t-76 53t-92.5 19.5z" />
<glyph unicode="|" horiz-adv-x="348" d="M124 -473v1867h99v-1867h-99z" />
<glyph unicode="}" horiz-adv-x="669" d="M24 -398q55 5 102.5 31.5t83.5 68t56.5 96.5t20.5 116q0 37 -5 68.5t-11 61t-11 59t-5 61.5q0 56 21 111t59 101.5t88 80t109 48.5q-59 18 -109 53t-88 80.5t-59 96.5t-21 102q0 27 5 54t11 57t11 63.5t5 73.5q0 59 -20.5 112.5t-56.5 94.5t-83.5 67.5t-102.5 30.5v36 q85 0 160 -31.5t130.5 -86t88 -127.5t32.5 -156q0 -25 -5 -51.5t-11.5 -56.5t-11.5 -66t-5 -80q0 -52 18.5 -96t50.5 -78t76 -53t92 -19v-50q-48 0 -92 -19.5t-76 -53t-50.5 -78t-18.5 -95.5q0 -40 5 -73t11.5 -63t11.5 -58.5t5 -60.5q0 -84 -32.5 -158.5t-88 -130 t-130.5 -88t-160 -32.5v37z" />
<glyph unicode="~" horiz-adv-x="1123" d="M26 535q0 161 81.5 245.5t227.5 84.5q70 0 142 -29t140.5 -65t130 -65.5t111.5 -29.5q45 0 75.5 16t53 41.5t37.5 60t27 71.5h51q0 -164 -77.5 -247t-208.5 -83q-89 0 -160.5 29t-135 65t-121 65.5t-114.5 29.5q-39 0 -74 -16t-63.5 -41.5t-47.5 -60t-27 -71.5h-48z" />
<glyph unicode="&#xa9;" horiz-adv-x="1640" d="M74 725q0 103 28 198t78 178t120 151t153 117.5t177 75.5t192 26q156 0 292 -59t236.5 -160.5t158 -237.5t57.5 -289q0 -157 -60 -292.5t-162.5 -236t-237.5 -158t-284 -57.5q-157 0 -293 59t-237.5 160.5t-159.5 236.5t-58 288zM200 725q0 -129 50 -242t136 -197 t199 -133t237 -49q125 0 237 49.5t197 134t136 197.5t51 240q0 129 -51 242.5t-136 198.5t-197 134.5t-237 49.5q-130 0 -243.5 -51.5t-197.5 -137.5t-132.5 -199t-48.5 -237zM432 724q0 98 28 176t79.5 132.5t125.5 83t167 28.5q258 0 336 -232l-118 -28q-63 151 -222 151 q-69 0 -118 -27t-80.5 -71.5t-46.5 -101t-15 -113.5q0 -151 68.5 -228.5t190.5 -77.5q97 0 152.5 46.5t80.5 143.5l120 -37q-13 -64 -45 -114t-78.5 -84.5t-105.5 -53t-124 -18.5q-96 0 -170 33.5t-124 91.5t-75.5 135t-25.5 165z" />
<glyph unicode="&#xad;" horiz-adv-x="614" d="M51 440v123h512v-123h-512z" />
<glyph unicode="&#xbc;" horiz-adv-x="1703" d="M110 1334l219 92h63v-741h-155v531q0 34 -1 56t-5 33.5t-11 16t-18 4.5q-19 0 -37.5 -7.5t-34.5 -14.5zM239 -51l997 1477h114l-997 -1477h-114zM952 186v99l385 457h139v-476h117v-80h-117v-186h-156v186h-368zM1041 266h279v329z" />
<glyph unicode="&#xbd;" horiz-adv-x="1634" d="M110 1334l219 92h63v-741h-155v531q0 34 -1 56t-5 33.5t-11 16t-18 4.5q-19 0 -37.5 -7.5t-34.5 -14.5zM225 -51l996 1477h115l-997 -1477h-114zM987 0v37q50 36 116.5 89.5t126.5 116t101.5 129t41.5 128.5q0 65 -46 105t-111 40q-63 0 -104 -31t-61 -88h-49q8 45 30 84 t56.5 68.5t79.5 46.5t96 17q123 0 191.5 -55.5t68.5 -161.5q0 -57 -37.5 -118t-93.5 -117.5t-117.5 -107t-108.5 -86.5h357v-96h-537z" />
<glyph unicode="&#xbe;" horiz-adv-x="1790" d="M110 735q0 24 19.5 32.5t39.5 8.5t40.5 -6t43 -15t46.5 -15t53 -6q56 0 93.5 37t37.5 91q0 47 -17.5 78.5t-48.5 50.5t-74 26.5t-94 7.5v68q36 0 68.5 7t57 22.5t39.5 41.5t15 64q0 110 -116 110q-47 0 -78.5 -25.5t-57.5 -64.5l-58 19q33 74 95.5 116.5t150.5 42.5 q35 0 70 -8.5t63 -27.5t46 -48t18 -69q0 -46 -28 -89t-66 -71q65 -23 101.5 -68t36.5 -118q0 -69 -30 -119t-78.5 -81.5t-109.5 -46.5t-122 -15q-14 0 -40.5 3t-52.5 10.5t-44.5 21.5t-18.5 35zM339 -51l995 1477h95l-997 -1477h-93zM1052 186v99l394 457h117v-476h117v-80 h-117v-186h-144v186h-367zM1140 266h279v333z" />
<glyph unicode="&#x2000;" horiz-adv-x="813" />
<glyph unicode="&#x2001;" horiz-adv-x="1626" />
<glyph unicode="&#x2002;" horiz-adv-x="813" />
<glyph unicode="&#x2003;" horiz-adv-x="1626" />
<glyph unicode="&#x2004;" horiz-adv-x="542" />
<glyph unicode="&#x2005;" horiz-adv-x="406" />
<glyph unicode="&#x2006;" horiz-adv-x="271" />
<glyph unicode="&#x2007;" horiz-adv-x="271" />
<glyph unicode="&#x2008;" horiz-adv-x="203" />
<glyph unicode="&#x2009;" horiz-adv-x="325" />
<glyph unicode="&#x200a;" horiz-adv-x="90" />
<glyph unicode="&#x2010;" horiz-adv-x="614" d="M51 440v123h512v-123h-512z" />
<glyph unicode="&#x2011;" horiz-adv-x="614" d="M51 440v123h512v-123h-512z" />
<glyph unicode="&#x2012;" horiz-adv-x="614" d="M51 440v123h512v-123h-512z" />
<glyph unicode="&#x2013;" horiz-adv-x="1025" d="M50 625h918l7 -103h-918z" />
<glyph unicode="&#x2014;" horiz-adv-x="1658" d="M50 626h1550l9 -104h-1550z" />
<glyph unicode="&#x2018;" horiz-adv-x="479" d="M74 1155q0 72 26.5 132t71.5 105t105 71.5t126 30.5v-48q-47 -13 -89 -38t-73 -56.5t-49 -68.5t-18 -76q0 -23 9.5 -40t22.5 -17t22 5t18.5 11.5t21.5 11.5t32 5q42 0 72.5 -34t30.5 -85q0 -54 -41.5 -90.5t-101.5 -36.5q-38 0 -72 17t-59.5 47t-40 69.5t-14.5 84.5z" />
<glyph unicode="&#x2019;" horiz-adv-x="479" d="M74 937v48q48 13 90 38t73.5 56.5t49.5 68.5t18 76q0 23 -9.5 40t-23.5 17q-13 0 -21.5 -5t-18 -11.5t-21.5 -11.5t-32 -5q-43 0 -74 34.5t-31 84.5q0 27 11.5 50.5t31 41t46 26.5t56.5 9q38 0 72 -17t59 -47t39 -70t14 -84q0 -72 -26.5 -132t-71.5 -104.5t-105 -71.5 t-126 -31z" />
<glyph unicode="&#x201c;" horiz-adv-x="859" d="M74 1155q0 72 26.5 132t71.5 105t105 71.5t126 30.5v-48q-47 -13 -89 -38t-73 -56.5t-49 -68.5t-18 -76q0 -23 9.5 -40t22.5 -17t22 5t18.5 11.5t21.5 11.5t32 5q42 0 72.5 -34t30.5 -85q0 -54 -41.5 -90.5t-101.5 -36.5q-38 0 -72 17t-59.5 47t-40 69.5t-14.5 84.5z M455 1155q0 72 26.5 132t71.5 105t105 71.5t126 30.5v-48q-48 -13 -90 -38t-72.5 -56.5t-48.5 -68.5t-18 -76q0 -23 9 -40t22 -17t22.5 5t18.5 11.5t21.5 11.5t32.5 5q41 0 72 -34t31 -85q0 -54 -41.5 -90.5t-101.5 -36.5q-39 0 -72.5 17t-59.5 47t-40 69.5t-14 84.5z" />
<glyph unicode="&#x201d;" horiz-adv-x="859" d="M74 937v48q48 13 90 38t73.5 56.5t49.5 68.5t18 76q0 23 -9.5 40t-23.5 17q-13 0 -21.5 -5t-18 -11.5t-21.5 -11.5t-32 -5q-43 0 -74 34.5t-31 84.5q0 27 11.5 50.5t31 41t46 26.5t56.5 9q38 0 72 -17t59 -47t39 -70t14 -84q0 -72 -26.5 -132t-71.5 -104.5t-105 -71.5 t-126 -31zM455 937v48q47 13 89 38t73.5 56.5t49.5 68.5t18 76q0 23 -9.5 40t-23.5 17q-13 0 -21.5 -5t-18 -11.5t-21.5 -11.5t-32 -5q-43 0 -73.5 34.5t-30.5 84.5q0 27 11.5 50.5t30.5 41t45.5 26.5t56.5 9q39 0 72.5 -17t58.5 -47t39.5 -70t14.5 -84q0 -72 -26.5 -132 t-71.5 -104.5t-105 -71.5t-126 -31z" />
<glyph unicode="&#x2022;" horiz-adv-x="737" d="M74 795q0 60 23 113.5t63 93.5t93.5 63t115.5 23q60 0 113.5 -23t93.5 -63t63 -93.5t23 -113.5t-23 -113t-63 -92t-93.5 -62t-113.5 -23q-62 0 -115.5 23t-93.5 62t-63 92t-23 113z" />
<glyph unicode="&#x202f;" horiz-adv-x="325" />
<glyph unicode="&#x205f;" horiz-adv-x="406" />
<glyph unicode="&#x25fc;" horiz-adv-x="1072" d="M0 0v1072h1072v-1072h-1072z" />
</font>
</defs>
</svg>
